<?xml version="1.0" encoding="UTF-8" standalone="no"?>
<!DOCTYPE svg PUBLIC "-//W3C//DTD SVG 1.1//EN" "http://www.w3.org/Graphics/SVG/1.1/DTD/svg11.dtd">
<svg width="100%" height="100%" viewBox="0 0 3370 3637" version="1.1" xmlns="http://www.w3.org/2000/svg" xmlns:xlink="http://www.w3.org/1999/xlink" xml:space="preserve" xmlns:serif="http://www.serif.com/" style="fill-rule:evenodd;clip-rule:evenodd;stroke-linecap:round;stroke-linejoin:round;stroke-miterlimit:1.5;">
    <g transform="matrix(1,0,0,1,-315.372,-179.077)">
        <g transform="matrix(1,0,0,1,52.0027,-190.883)">
            <g transform="matrix(1,0,0,1,-52.0027,190.883)">
                <rect x="355.252" y="218.958" width="3289.49" height="2467.12" style="fill:white;"/>
            </g>
        </g>
        <g transform="matrix(1,0,0,1,52.0027,-190.883)">
            <g transform="matrix(1.02921,0,0,1.02921,-932.803,-138.409)">
                <path d="M2000,1331.72L2799.03,1331.72L2799.03,532.688L1200.97,532.688L1200.97,2130.75L2000,2130.75M1200.97,2130.75L1200.97,2929.78L2799.03,2929.78L2799.03,1331.72" style="fill:none;stroke:black;stroke-width:77.5px;"/>
            </g>
        </g>
        <g transform="matrix(1,0,0,1,52.0027,-190.883)">
            <g transform="matrix(1.02921,0,0,1.02921,711.945,-138.409)">
                <path d="M2799.03,532.688L1200.97,532.688L1200.97,2929.78L2799.03,2929.78L2799.03,532.688ZM2799.03,1331.72L2000,1331.72M2799.03,2130.75L2000,2130.75" style="fill:none;stroke:black;stroke-width:77.5px;"/>
            </g>
        </g>
        <g transform="matrix(1,0,0,1,52.0027,-190.883)">
            <g transform="matrix(0.727764,0.727764,0.727764,-0.727764,-926.001,2750.66)">
                <path d="M2079.67,408.438L2079.67,2805.53L1280.64,2805.53L1280.64,1207.47L481.611,1207.47L1280.64,408.438L2079.67,408.438Z" style="fill:white;stroke:black;stroke-width:77.5px;"/>
            </g>
        </g>
    </g>
</svg>
